#!OML:ASF F:\VICON\USERDATA\INSTALL\rory3\rory3.ASF
:FULLY-SPECIFIED
:DEGREES
715
root -8.54824 17.5871 1.60842 19.7161 25.8294 13.6022
lowerback 14.7353 1.77185 3.30971
upperback 6.54668 3.20371 9.06803
thorax -1.65563 1.60998 7.25244
lowerneck -9.70091 -13.4154 -8.80155
upperneck 28.8427 -18.8604 6.69261
head 12.7053 -8.34667 1.24231
rclavicle 4.45278e-014 -2.8625e-014
rhumerus 17.0696 1.96622 -90.3354
rradius 27.6919
rwrist -2.59539
rhand -8.85152 -21.4259
rfingers 7.12502
rthumb 17.0894 -50.6943
lclavicle 4.45278e-014 -2.8625e-014
lhumerus -18.9194 -17.1344 91.7159
lradius 60.4478
lwrist 70.534
lhand -28.0841 51.3667
lfingers 7.12502
lthumb -1.46712 -278.659
rfemur -35.8541 -4.05998 6.37188
rtibia 46.4589
rfoot -22.8744 -12.1806
rtoes 2.05883
lfemur -24.4137 -1.60218 -18.2782
ltibia 23.9349
lfoot -6.01571 -0.176887
ltoes -27.0031
716
root -8.52109 17.5804 1.59532 19.6001 25.9287 13.4934
lowerback 14.8583 1.81772 3.3526
upperback 6.55348 3.2818 9.09454
thorax -1.72146 1.64982 7.24099
lowerneck -9.6591 -13.4706 -8.67587
upperneck 28.8862 -18.9757 6.71728
head 12.7141 -8.37926 1.2164
rclavicle -6.67916e-014 5.40694e-014
rhumerus 16.8008 2.8433 -90.7775
rradius 27.8601
rwrist -2.49081
rhand -7.62893 -20.972
rfingers 7.12502
rthumb 18.2658 -50.1344
lclavicle -6.67916e-014 5.40694e-014
lhumerus -19.335 -15.4867 91.289
lradius 60.5242
lwrist 71.0625
lhand -28.3893 50.7179
lfingers 7.12502
lthumb -1.76192 -279.31
rfemur -35.7956 -3.96005 6.34463
rtibia 46.5616
rfoot -22.921 -12.2308
rtoes 1.73218
lfemur -24.0769 -2.10563 -17.9122
ltibia 23.0131
lfoot -6.65394 0.125727
ltoes -29.0822
717
root -8.48897 17.5634 1.57412 19.5956 26.0066 13.4531
lowerback 14.8939 1.87677 3.39765
upperback 6.58903 3.36634 9.10732
thorax -1.70963 1.69246 7.21436
lowerneck -9.73778 -13.5648 -8.60156
upperneck 28.8751 -19.119 6.71807
head 12.7306 -8.43048 1.17539
rclavicle 3.81667e-014 5.40694e-014
rhumerus 16.6426 3.40452 -91.2164
rradius 27.9702
rwrist -2.18328
rhand -6.59096 -20.4792
rfingers 7.12502
rthumb 19.2642 -49.5451
lclavicle 3.81667e-014 5.40694e-014
lhumerus -19.6336 -14.296 90.9141
lradius 60.771
lwrist 72.2177
lhand -29.4656 50.1621
lfingers 7.12502
lthumb -2.80137 -279.877
rfemur -35.8719 -3.81675 6.21057
rtibia 46.6842
rfoot -22.9451 -12.4267
rtoes 0.903031
lfemur -23.7784 -2.48239 -17.7008
ltibia 22.1733
lfoot -6.17081 0.351091
ltoes -28.2769
718
root -8.45496 17.5543 1.55357 19.5993 26.1069 13.3127
lowerback 14.8304 1.91618 3.49205
upperback 6.6203 3.42481 9.15009
thorax -1.64535 1.72266 7.19929
lowerneck -9.80374 -13.623 -8.49971
upperneck 28.8637 -19.2149 6.71131
head 12.7353 -8.46008 1.13733
rclavicle -5.725e-014 -5.08889e-014
rhumerus 16.435 3.69564 -91.7548
rradius 28.1382
rwrist -1.97694
rhand -5.67795 -20.3458
rfingers 7.12502
rthumb 20.1419 -49.3216
lclavicle -5.725e-014 -5.08889e-014
lhumerus -19.8535 -13.2206 90.549
lradius 60.8932
lwrist 72.995
lhand -30.4162 50.339
lfingers 7.12502
lthumb -3.71941 -279.714
rfemur -35.958 -3.5121 6.12581
rtibia 46.7953
rfoot -23.1091 -12.5932
rtoes 1.1429
lfemur -23.5605 -2.7937 -17.4227
ltibia 21.4053
lfoot -5.86365 0.315517
ltoes -28.3676
719
root -8.42085 17.5457 1.53401 19.6985 26.134 13.2192
lowerback 14.7196 1.97047 3.46174
upperback 6.59387 3.48569 9.179
thorax -1.62402 1.75244 7.24033
lowerneck -9.59539 -13.6626 -8.50313
upperneck 28.6842 -19.2916 6.81671
head 12.6404 -8.49669 1.18079
rclavicle -6.36111e-015 -3.49861e-014
rhumerus 16.1007 4.03407 -92.1539
rradius 28.4346
rwrist -2.23269
rhand -4.49624 -20.2498
rfingers 7.12502
rthumb 21.2774 -49.1019
lclavicle -6.36111e-015 -3.49861e-014
lhumerus -20.1086 -12.2732 90.2153
lradius 60.8368
lwrist 73.112
lhand -30.9471 51.1326
lfingers 7.12502
lthumb -4.23206 -278.93
rfemur -36.1534 -3.4861 6.05467
rtibia 46.8957
rfoot -23.1972 -12.5492
rtoes 1.45345
lfemur -23.4822 -3.24735 -17.1271
ltibia 20.7114
lfoot -5.6155 0.264222
ltoes -27.9312
